<svg viewBox="0 0 940 1360" xmlns="http://www.w3.org/2000/svg" role="img" font-family="ui-monospace,monospace" font-size="12">
  <title>Platform-XP-Networking Composition Flowchart</title>
  <desc>Crossplane XRD composition pipeline for self-service VPC networking</desc>
  <defs>
    <marker id="arr" markerWidth="8" markerHeight="8" refX="6" refY="3" orient="auto"><path d="M0,0 L0,6 L8,3 z" fill="#94a3b8"/></marker>
    <marker id="arr-r" markerWidth="8" markerHeight="8" refX="6" refY="3" orient="auto"><path d="M0,0 L0,6 L8,3 z" fill="#f87171"/></marker>
  </defs>
  <rect width="940" height="1360" fill="#0f172a"/>

  <!-- INPUTS -->
  <text x="22" y="20" font-size="10" font-weight="600" fill="#475569" letter-spacing="1.5">INPUTS</text>
  <line x1="22" y1="26" x2="918" y2="26" stroke="#1e293b" stroke-width="1.5"/>

  <!-- Required box -->
  <rect x="38" y="34" width="418" height="162" rx="8" fill="#1e293b" stroke="#334155" stroke-width="1.5"/>
  <text x="247" y="51" text-anchor="middle" font-size="10" font-weight="600" fill="#64748b" letter-spacing="1">REQUIRED</text>
  <line x1="48" y1="57" x2="446" y2="57" stroke="#334155" stroke-width="1"/>
  <text x="55" y="72" fill="#e2e8f0" font-size="11" font-weight="600">buId</text>
  <text x="55" y="84" fill="#64748b" font-size="10">string · BU\d{3}</text>
  <text x="248" y="72" fill="#e2e8f0" font-size="11" font-weight="600">awsAccountId</text>
  <text x="248" y="84" fill="#64748b" font-size="10">string · 12-digit</text>
  <text x="55" y="98" fill="#e2e8f0" font-size="11" font-weight="600">region</text>
  <text x="55" y="110" fill="#64748b" font-size="10">string · AWS region</text>
  <text x="248" y="98" fill="#e2e8f0" font-size="11" font-weight="600">env</text>
  <text x="248" y="110" fill="#64748b" font-size="10">dev | staging | prod</text>
  <text x="55" y="124" fill="#e2e8f0" font-size="11" font-weight="600">friendlyName</text>
  <text x="55" y="136" fill="#64748b" font-size="10">string · prefix for all resource names</text>
  <text x="248" y="124" fill="#e2e8f0" font-size="11" font-weight="600">vpcCidr</text>
  <text x="248" y="136" fill="#64748b" font-size="10">string · e.g. 10.0.0.0/16</text>
  <text x="55" y="150" fill="#e2e8f0" font-size="11" font-weight="600">azs[]</text>
  <text x="55" y="162" fill="#64748b" font-size="10">string[] · 2–3 AZs</text>
  <text x="248" y="150" fill="#e2e8f0" font-size="11" font-weight="600">eksNodeSubnetCidrs[]</text>
  <text x="248" y="162" fill="#64748b" font-size="10">private · NAT-routed · one per AZ</text>
  <text x="55" y="176" fill="#e2e8f0" font-size="11" font-weight="600">resourceSubnetCidrs[]</text>
  <text x="55" y="188" fill="#64748b" font-size="10">private · VPC-local · RDS/ElastiCache</text>
  <text x="248" y="176" fill="#e2e8f0" font-size="11" font-weight="600">publicSubnetCidrs[]</text>
  <text x="248" y="188" fill="#64748b" font-size="10">public · load balancers · one per AZ</text>

  <!-- Optional box -->
  <rect x="480" y="34" width="420" height="162" rx="8" fill="#1e293b" stroke="#334155" stroke-width="1.5"/>
  <text x="690" y="51" text-anchor="middle" font-size="10" font-weight="600" fill="#64748b" letter-spacing="1">OPTIONAL</text>
  <line x1="490" y1="57" x2="890" y2="57" stroke="#334155" stroke-width="1"/>
  <text x="497" y="72" fill="#e2e8f0" font-size="11" font-weight="600">singleNatGateway</text>
  <text x="497" y="84" fill="#64748b" font-size="10">bool · default: false (one per AZ)</text>
  <text x="700" y="72" fill="#e2e8f0" font-size="11" font-weight="600">enableFlowLogs</text>
  <text x="700" y="84" fill="#64748b" font-size="10">bool · default: false</text>
  <text x="497" y="98" fill="#e2e8f0" font-size="11" font-weight="600">flowLogsRetentionDays</text>
  <text x="497" y="110" fill="#64748b" font-size="10">int · default: 7</text>
  <text x="700" y="98" fill="#e2e8f0" font-size="11" font-weight="600">enableVpcEndpoints</text>
  <text x="700" y="110" fill="#64748b" font-size="10">bool · default: true</text>
  <text x="497" y="124" fill="#e2e8f0" font-size="11" font-weight="600">tags</text>
  <text x="497" y="136" fill="#64748b" font-size="10">map · optional</text>

  <!-- Arrow inputs → claim -->
  <line x1="470" y1="196" x2="470" y2="211" stroke="#94a3b8" stroke-width="1.2" marker-end="url(#arr)"/>

  <!-- CLAIM -->
  <text x="22" y="223" font-size="10" font-weight="600" fill="#475569" letter-spacing="1.5">CLAIM</text>
  <line x1="22" y1="229" x2="918" y2="229" stroke="#1e293b" stroke-width="1.5"/>
  <rect x="270" y="236" width="400" height="62" rx="8" fill="#1e1b4b" stroke="#818cf8" stroke-width="2"/>
  <text x="470" y="259" text-anchor="middle" font-weight="700" font-size="13" fill="#a5b4fc">UNetwork Claim</text>
  <text x="470" y="276" text-anchor="middle" fill="#94a3b8" font-size="10">apiVersion: networking.platform.urukube.io/v1alpha1  ·  kind: UNetwork</text>
  <line x1="470" y1="298" x2="470" y2="316" stroke="#94a3b8" stroke-width="1.2" marker-end="url(#arr)"/>

  <!-- STEP 1 -->
  <text x="22" y="328" font-size="10" font-weight="600" fill="#475569" letter-spacing="1.5">PIPELINE · STEP 1</text>
  <line x1="22" y1="334" x2="918" y2="334" stroke="#1e293b" stroke-width="1.5"/>
  <rect x="38" y="342" width="155" height="62" rx="6" fill="#1e293b" stroke="#334155" stroke-width="1.2"/>
  <text x="116" y="362" text-anchor="middle" font-weight="600" fill="#e2e8f0" font-size="11">org-defaults</text>
  <text x="116" y="377" text-anchor="middle" fill="#94a3b8" font-size="10">EnvironmentConfig</text>
  <text x="116" y="391" text-anchor="middle" fill="#64748b" font-size="10">static reference</text>
  <rect x="208" y="342" width="162" height="62" rx="6" fill="#1e293b" stroke="#334155" stroke-width="1.2"/>
  <text x="289" y="362" text-anchor="middle" font-weight="600" fill="#e2e8f0" font-size="11">BU-specific config</text>
  <text x="289" y="377" text-anchor="middle" fill="#94a3b8" font-size="10">EnvironmentConfig</text>
  <text x="289" y="391" text-anchor="middle" fill="#64748b" font-size="10">label: bu-id=buId</text>
  <rect x="490" y="336" width="378" height="74" rx="8" fill="#1c1a0e" stroke="#d97706" stroke-width="2"/>
  <text x="679" y="360" text-anchor="middle" font-weight="700" font-size="12" fill="#fbbf24">function-environment-configs  v0.6.0</text>
  <text x="679" y="377" text-anchor="middle" fill="#94a3b8" font-size="10">merge org-defaults + BU config</text>
  <text x="679" y="392" text-anchor="middle" fill="#64748b" font-size="10">outputs: costCenter · ownerEmail · orgName · complianceScope · managedBy</text>
  <line x1="370" y1="373" x2="488" y2="373" stroke="#94a3b8" stroke-width="1.2" marker-end="url(#arr)"/>
  <line x1="116" y1="404" x2="116" y2="428" stroke="#94a3b8" stroke-width="1" stroke-dasharray="4,3"/>
  <line x1="116" y1="428" x2="488" y2="428" stroke="#94a3b8" stroke-width="1" stroke-dasharray="4,3" marker-end="url(#arr)"/>
  <line x1="679" y1="410" x2="679" y2="446" stroke="#94a3b8" stroke-width="1.2"/>
  <line x1="679" y1="446" x2="470" y2="446" stroke="#94a3b8" stroke-width="1.2"/>
  <line x1="470" y1="446" x2="470" y2="462" stroke="#94a3b8" stroke-width="1.2" marker-end="url(#arr)"/>

  <!-- STEP 2 -->
  <text x="22" y="474" font-size="10" font-weight="600" fill="#475569" letter-spacing="1.5">PIPELINE · STEP 2</text>
  <line x1="22" y1="480" x2="918" y2="480" stroke="#1e293b" stroke-width="1.5"/>
  <rect x="188" y="488" width="370" height="58" rx="8" fill="#1c1a0e" stroke="#d97706" stroke-width="2"/>
  <text x="373" y="512" text-anchor="middle" font-weight="700" font-size="12" fill="#fbbf24">function-patch-and-transform  v0.10.7</text>
  <text x="373" y="529" text-anchor="middle" fill="#64748b" font-size="10">creates ProviderConfig only (IRSA cross-account role chain)</text>
  <line x1="558" y1="517" x2="594" y2="517" stroke="#94a3b8" stroke-width="1.2" marker-end="url(#arr)"/>
  <rect x="596" y="488" width="166" height="58" rx="6" fill="#0f1f18" stroke="#34d399" stroke-width="2"/>
  <text x="679" y="512" text-anchor="middle" font-weight="700" font-size="11" fill="#6ee7b7">ProviderConfig</text>
  <text x="679" y="527" text-anchor="middle" fill="#64748b" font-size="10">IRSA → urukube-crossplane-role</text>
  <line x1="470" y1="546" x2="470" y2="562" stroke="#94a3b8" stroke-width="1.2" marker-end="url(#arr)"/>

  <!-- STEP 3 -->
  <text x="22" y="574" font-size="10" font-weight="600" fill="#475569" letter-spacing="1.5">PIPELINE · STEP 3</text>
  <line x1="22" y1="580" x2="918" y2="580" stroke="#1e293b" stroke-width="1.5"/>
  <rect x="250" y="588" width="440" height="58" rx="8" fill="#1c1a0e" stroke="#d97706" stroke-width="2"/>
  <text x="470" y="612" text-anchor="middle" font-weight="700" font-size="12" fill="#fbbf24">function-go-templating  v0.7.0</text>
  <text x="470" y="629" text-anchor="middle" fill="#64748b" font-size="10">generates all VPC resources via inline Go template · loops over azs[]</text>

  <!-- Conditional notes -->
  <rect x="38" y="658" width="415" height="62" rx="6" fill="#1a0808" stroke="#f87171" stroke-width="1.5"/>
  <text x="246" y="676" text-anchor="middle" font-size="10" font-weight="600" fill="#fca5a5">singleNatGateway</text>
  <text x="246" y="692" text-anchor="middle" fill="#64748b" font-size="10">false → 1 EIP + 1 NAT GW per AZ (N route tables)</text>
  <text x="246" y="706" text-anchor="middle" fill="#64748b" font-size="10">true → 1 EIP + 1 NAT GW total (1 shared route table)</text>
  <rect x="466" y="658" width="434" height="62" rx="6" fill="#1a0808" stroke="#f87171" stroke-width="1.5"/>
  <text x="683" y="676" text-anchor="middle" font-size="10" font-weight="600" fill="#fca5a5">enableVpcEndpoints</text>
  <text x="683" y="692" text-anchor="middle" fill="#64748b" font-size="10">true → 9 Interface endpoints (ssm,ec2,ecr,sts,kms,logs…)</text>
  <text x="683" y="706" text-anchor="middle" fill="#64748b" font-size="10">true → 2 Gateway endpoints (s3, dynamodb)</text>

  <line x1="470" y1="646" x2="470" y2="658" stroke="#94a3b8" stroke-width="1.2" marker-end="url(#arr)"/>
  <line x1="246" y1="720" x2="246" y2="760" stroke="#334155" stroke-width="1" stroke-dasharray="3,3" marker-end="url(#arr)"/>
  <line x1="683" y1="720" x2="683" y2="760" stroke="#f87171" stroke-width="1" stroke-dasharray="3,3" marker-end="url(#arr-r)"/>

  <!-- COMPOSED RESOURCES -->
  <text x="22" y="748" font-size="10" font-weight="600" fill="#475569" letter-spacing="1.5">COMPOSED RESOURCES</text>
  <line x1="22" y1="754" x2="918" y2="754" stroke="#1e293b" stroke-width="1.5"/>

  <!-- VPC Core -->
  <rect x="38" y="762" width="200" height="110" rx="8" fill="#0f1f18" stroke="#34d399" stroke-width="2"/>
  <text x="138" y="781" text-anchor="middle" font-weight="700" font-size="11" fill="#6ee7b7">VPC Core</text>
  <text x="138" y="796" text-anchor="middle" fill="#94a3b8" font-size="10">ec2.aws.upbound.io/v1beta1</text>
  <line x1="48" y1="803" x2="228" y2="803" stroke="#1e293b" stroke-width="1"/>
  <text x="138" y="818" text-anchor="middle" fill="#64748b" font-size="10">VPC · cidrBlock ← vpcCidr</text>
  <text x="138" y="832" text-anchor="middle" fill="#64748b" font-size="10">DNS hostnames + support: true</text>
  <text x="138" y="846" text-anchor="middle" fill="#64748b" font-size="10">InternetGateway · attached to VPC</text>
  <text x="138" y="860" text-anchor="middle" fill="#64748b" font-size="10">name: {friendlyName}-vpc / -igw</text>

  <!-- Subnets -->
  <rect x="254" y="762" width="220" height="150" rx="8" fill="#0f1f18" stroke="#34d399" stroke-width="2"/>
  <text x="364" y="781" text-anchor="middle" font-weight="700" font-size="11" fill="#6ee7b7">Subnets  (×N AZs each)</text>
  <text x="364" y="796" text-anchor="middle" fill="#94a3b8" font-size="10">ec2.aws.upbound.io/v1beta1/Subnet</text>
  <line x1="264" y1="803" x2="464" y2="803" stroke="#1e293b" stroke-width="1"/>
  <text x="364" y="818" text-anchor="middle" fill="#94a3b8" font-size="10" font-weight="600">EKS Node Subnets</text>
  <text x="364" y="831" text-anchor="middle" fill="#64748b" font-size="10">private · k8s internal-elb tag</text>
  <text x="364" y="844" text-anchor="middle" fill="#64748b" font-size="10">k8s cluster shared tag</text>
  <line x1="264" y1="851" x2="464" y2="851" stroke="#1e293b" stroke-width="1" stroke-dasharray="3,2"/>
  <text x="364" y="864" text-anchor="middle" fill="#94a3b8" font-size="10" font-weight="600">Resource Subnets</text>
  <text x="364" y="877" text-anchor="middle" fill="#64748b" font-size="10">private · VPC-local only (RDS/cache)</text>
  <line x1="264" y1="884" x2="464" y2="884" stroke="#1e293b" stroke-width="1" stroke-dasharray="3,2"/>
  <text x="364" y="897" text-anchor="middle" fill="#94a3b8" font-size="10" font-weight="600">Public Subnets</text>
  <text x="364" y="910" text-anchor="middle" fill="#64748b" font-size="10">public · k8s elb tag · LB facing</text>

  <!-- NAT conditional -->
  <rect x="490" y="762" width="200" height="110" rx="8" fill="#1c1a0e" stroke="#d97706" stroke-width="2"/>
  <text x="590" y="781" text-anchor="middle" font-weight="700" font-size="11" fill="#fcd34d">NAT Gateway</text>
  <text x="590" y="796" text-anchor="middle" fill="#94a3b8" font-size="10">ec2.aws.upbound.io/v1beta1</text>
  <line x1="500" y1="803" x2="680" y2="803" stroke="#1e293b" stroke-width="1"/>
  <text x="590" y="818" text-anchor="middle" fill="#64748b" font-size="10">EIP + NATGateway per iteration</text>
  <text x="590" y="832" text-anchor="middle" fill="#64748b" font-size="10">singleNatGateway=false: N each</text>
  <text x="590" y="846" text-anchor="middle" fill="#64748b" font-size="10">singleNatGateway=true: 1 each</text>
  <text x="590" y="860" text-anchor="middle" fill="#fcd34d" font-size="10">count varies by param</text>

  <!-- Routing -->
  <rect x="706" y="762" width="196" height="150" rx="8" fill="#0f1f18" stroke="#34d399" stroke-width="2"/>
  <text x="804" y="781" text-anchor="middle" font-weight="700" font-size="11" fill="#6ee7b7">Routing</text>
  <text x="804" y="796" text-anchor="middle" fill="#94a3b8" font-size="10">ec2.aws.upbound.io/v1beta1</text>
  <line x1="716" y1="803" x2="892" y2="803" stroke="#1e293b" stroke-width="1"/>
  <text x="804" y="818" text-anchor="middle" fill="#94a3b8" font-size="10" font-weight="600">Public RT (shared)</text>
  <text x="804" y="831" text-anchor="middle" fill="#64748b" font-size="10">0.0.0.0/0 → IGW · N assoc</text>
  <line x1="716" y1="838" x2="892" y2="838" stroke="#1e293b" stroke-width="1" stroke-dasharray="3,2"/>
  <text x="804" y="851" text-anchor="middle" fill="#94a3b8" font-size="10" font-weight="600">Private RTs (EKS nodes)</text>
  <text x="804" y="864" text-anchor="middle" fill="#64748b" font-size="10">0.0.0.0/0 → NATGateway</text>
  <text x="804" y="877" text-anchor="middle" fill="#64748b" font-size="10">1 shared or N per AZ</text>
  <line x1="716" y1="884" x2="892" y2="884" stroke="#1e293b" stroke-width="1" stroke-dasharray="3,2"/>
  <text x="804" y="897" text-anchor="middle" fill="#94a3b8" font-size="10" font-weight="600">Intra RT (resources)</text>
  <text x="804" y="910" text-anchor="middle" fill="#64748b" font-size="10">no default route · VPC-local</text>

  <!-- Security Groups -->
  <rect x="38" y="932" width="428" height="194" rx="8" fill="#0f1f18" stroke="#34d399" stroke-width="2"/>
  <text x="252" y="951" text-anchor="middle" font-weight="700" font-size="11" fill="#6ee7b7">Security Groups</text>
  <text x="252" y="966" text-anchor="middle" fill="#94a3b8" font-size="10">ec2.aws.upbound.io/v1beta1 · SecurityGroup + IngressRule + EgressRule</text>
  <line x1="48" y1="973" x2="456" y2="973" stroke="#1e293b" stroke-width="1"/>
  <text x="252" y="988" text-anchor="middle" fill="#94a3b8" font-size="10" font-weight="600">EKS Nodes SG</text>
  <text x="252" y="1001" text-anchor="middle" fill="#64748b" font-size="10">ingress: all (-1) from vpcCidr · egress: all to 0.0.0.0/0</text>
  <line x1="48" y1="1008" x2="456" y2="1008" stroke="#1e293b" stroke-width="1" stroke-dasharray="3,2"/>
  <text x="252" y="1023" text-anchor="middle" fill="#94a3b8" font-size="10" font-weight="600">EKS Control Plane SG</text>
  <text x="252" y="1036" text-anchor="middle" fill="#64748b" font-size="10">ingress: HTTPS 443 from Nodes SG</text>
  <text x="252" y="1049" text-anchor="middle" fill="#64748b" font-size="10">egress: 443 to Nodes SG · 1025-65535 to Nodes SG (kubelet)</text>
  <line x1="48" y1="1056" x2="456" y2="1056" stroke="#1e293b" stroke-width="1" stroke-dasharray="3,2"/>
  <text x="252" y="1071" text-anchor="middle" fill="#94a3b8" font-size="10" font-weight="600">AWS Resources SG  (RDS / ElastiCache)</text>
  <text x="252" y="1084" text-anchor="middle" fill="#64748b" font-size="10">ingress: all (-1) from Nodes SG · egress: all to vpcCidr</text>
  <line x1="48" y1="1091" x2="456" y2="1091" stroke="#1e293b" stroke-width="1" stroke-dasharray="3,2"/>
  <text x="252" y="1106" text-anchor="middle" fill="#94a3b8" font-size="10" font-weight="600">VPC Endpoints SG  (conditional)</text>
  <text x="252" y="1119" text-anchor="middle" fill="#64748b" font-size="10">ingress: HTTPS 443 from vpcCidr · egress: all</text>

  <!-- VPC Endpoints conditional -->
  <rect x="482" y="932" width="420" height="194" rx="8" fill="#1a0808" stroke="#f87171" stroke-width="2" stroke-dasharray="6,3"/>
  <text x="692" y="951" text-anchor="middle" font-weight="700" font-size="11" fill="#fca5a5">VPC Endpoints  (enableVpcEndpoints: true)</text>
  <text x="692" y="966" text-anchor="middle" fill="#94a3b8" font-size="10">ec2.aws.upbound.io/v1beta1/VPCEndpoint</text>
  <line x1="492" y1="973" x2="892" y2="973" stroke="#1e293b" stroke-width="1"/>
  <text x="692" y="988" text-anchor="middle" fill="#94a3b8" font-size="10" font-weight="600">Interface Endpoints  ×9</text>
  <text x="692" y="1002" text-anchor="middle" fill="#64748b" font-size="10">ssm · ssmmessages · ec2messages · kms</text>
  <text x="692" y="1015" text-anchor="middle" fill="#64748b" font-size="10">ecr.api · ecr.dkr · ec2 · sts · logs</text>
  <text x="692" y="1028" text-anchor="middle" fill="#64748b" font-size="10">type: Interface · privateDNS: true</text>
  <text x="692" y="1041" text-anchor="middle" fill="#64748b" font-size="10">placed in EKS node subnets</text>
  <line x1="492" y1="1048" x2="892" y2="1048" stroke="#1e293b" stroke-width="1" stroke-dasharray="3,2"/>
  <text x="692" y="1063" text-anchor="middle" fill="#94a3b8" font-size="10" font-weight="600">Gateway Endpoints  ×2</text>
  <text x="692" y="1077" text-anchor="middle" fill="#64748b" font-size="10">s3 · dynamodb</text>
  <text x="692" y="1091" text-anchor="middle" fill="#64748b" font-size="10">type: Gateway · added to all route tables</text>
  <text x="692" y="1104" text-anchor="middle" fill="#64748b" font-size="10">(private, intra, public)</text>
  <text x="692" y="1120" text-anchor="middle" fill="#f87171" font-size="10">required for private EKS clusters</text>

  <!-- STATUS OUTPUTS -->
  <text x="22" y="1148" font-size="10" font-weight="600" fill="#475569" letter-spacing="1.5">STATUS OUTPUTS  <tspan font-size="9" fill="#64748b">(consumed by UEksCluster)</tspan></text>
  <line x1="22" y1="1154" x2="918" y2="1154" stroke="#1e293b" stroke-width="1.5"/>
  <rect x="38" y="1162" width="860" height="76" rx="8" fill="#0c1a2e" stroke="#38bdf8" stroke-width="1.5"/>
  <text x="120" y="1182" text-anchor="middle" fill="#7dd3fc" font-size="10" font-weight="600">vpcId</text>
  <text x="120" y="1195" text-anchor="middle" fill="#64748b" font-size="10">string</text>
  <text x="280" y="1182" text-anchor="middle" fill="#7dd3fc" font-size="10" font-weight="600">eksNodeSubnetIds[]</text>
  <text x="280" y="1195" text-anchor="middle" fill="#64748b" font-size="10">string[] · one per AZ</text>
  <text x="470" y="1182" text-anchor="middle" fill="#7dd3fc" font-size="10" font-weight="600">resourceSubnetIds[]</text>
  <text x="470" y="1195" text-anchor="middle" fill="#64748b" font-size="10">string[] · one per AZ</text>
  <text x="650" y="1182" text-anchor="middle" fill="#7dd3fc" font-size="10" font-weight="600">publicSubnetIds[]</text>
  <text x="650" y="1195" text-anchor="middle" fill="#64748b" font-size="10">string[] · one per AZ</text>
  <text x="120" y="1222" text-anchor="middle" fill="#7dd3fc" font-size="10" font-weight="600">nodeSecurityGroupId</text>
  <text x="120" y="1235" text-anchor="middle" fill="#64748b" font-size="10">string</text>
  <text x="350" y="1222" text-anchor="middle" fill="#7dd3fc" font-size="10" font-weight="600">controlPlaneSecurityGroupId</text>
  <text x="350" y="1235" text-anchor="middle" fill="#64748b" font-size="10">string</text>
  <text x="590" y="1222" text-anchor="middle" fill="#7dd3fc" font-size="10" font-weight="600">resourcesSecurityGroupId</text>
  <text x="590" y="1235" text-anchor="middle" fill="#64748b" font-size="10">string</text>

  <!-- LEGEND -->
  <rect x="38" y="1262" width="868" height="52" rx="6" fill="#1e293b" stroke="#334155" stroke-width="1"/>
  <line x1="56" y1="1289" x2="86" y2="1289" stroke="#94a3b8" stroke-width="1.2" marker-end="url(#arr)"/>
  <text x="94" y="1293" fill="#94a3b8" font-size="10">data flow</text>
  <line x1="155" y1="1289" x2="185" y2="1289" stroke="#475569" stroke-width="1.2" stroke-dasharray="4,3" marker-end="url(#arr)"/>
  <text x="193" y="1293" fill="#94a3b8" font-size="10">fan-out to resources</text>
  <rect x="310" y="1280" width="12" height="12" rx="2" fill="none" stroke="#818cf8" stroke-width="2"/>
  <text x="328" y="1291" fill="#94a3b8" font-size="10">claim</text>
  <rect x="370" y="1280" width="12" height="12" rx="2" fill="none" stroke="#d97706" stroke-width="2"/>
  <text x="388" y="1291" fill="#94a3b8" font-size="10">pipeline function</text>
  <rect x="484" y="1280" width="12" height="12" rx="2" fill="none" stroke="#34d399" stroke-width="2"/>
  <text x="502" y="1291" fill="#94a3b8" font-size="10">always-on resource</text>
  <rect x="618" y="1280" width="12" height="12" rx="2" fill="none" stroke="#f87171" stroke-width="2" stroke-dasharray="4,3"/>
  <text x="636" y="1291" fill="#94a3b8" font-size="10">conditional resource</text>
  <rect x="757" y="1280" width="12" height="12" rx="2" fill="#0c1a2e" stroke="#38bdf8" stroke-width="1.5"/>
  <text x="775" y="1291" fill="#94a3b8" font-size="10">status output</text>

  <text x="470" y="1342" text-anchor="middle" fill="#334155" font-size="10">Platform-XP-Networking · Crossplane XRD Composition Pipeline</text>
</svg>
